<svg xmlns="http://www.w3.org/2000/svg" version="1.1" xmlns:xlink="http://www.w3.org/1999/xlink" xmlns:svgjs="http://svgjs.dev/svgjs" width="2000" height="762" viewBox="0 0 2000 762"><g transform="matrix(1,0,0,1,-0.4222297695019961,-0.5595719343571659)"><svg viewBox="0 0 333 127" data-background-color="#ffffff" preserveAspectRatio="xMidYMid meet" height="762" width="2000" xmlns="http://www.w3.org/2000/svg" xmlns:xlink="http://www.w3.org/1999/xlink"><g id="tight-bounds" transform="matrix(1,0,0,1,0.07030125662208775,0.09326198905952765)"><svg viewBox="0 0 332.8593974867558 126.81347602188094" height="126.81347602188094" width="332.8593974867558"><g><svg viewBox="0 0 332.8593974867558 126.81347602188094" height="126.81347602188094" width="332.8593974867558"><g><svg viewBox="0 0 332.8593974867558 126.81347602188094" height="126.81347602188094" width="332.8593974867558"><g id="textblocktransform"><svg viewBox="0 0 332.8593974867558 126.81347602188094" height="126.81347602188094" width="332.8593974867558" id="textblock"><g><svg viewBox="0 0 332.8593974867558 81.709" height="81.709" width="332.8593974867558"><g><svg><g></g><g></g></svg></g><g><svg><g><svg></svg></g><g></g></svg></g><g id="text-0"><svg viewBox="0 0 332.8593974867558 81.709" height="81.709" width="332.8593974867558"><g transform="matrix(1,0,0,1,0,0)"><svg width="231.8594" viewBox="2.85 -39.65 143.29 50.5" height="81.709" data-palette-color="#000000"><path d="M15-27.15Q18.85-27.15 20.9-23.65 22.95-20.15 22.95-13.25L22.95-13.25Q22.95-6.75 20.65-3 18.35 0.75 14.35 0.75L14.35 0.75Q12.6 0.75 11.15-0.13 9.7-1 8.65-2.55L8.65-2.55 8.3 0 2.85 0 2.85-37 9-37.65 9-23.6Q10.05-25.3 11.58-26.23 13.1-27.15 15-27.15L15-27.15ZM12.7-3.9Q14.55-3.9 15.58-6 16.6-8.1 16.6-13.25L16.6-13.25Q16.6-18.6 15.68-20.58 14.75-22.55 13.05-22.55L13.05-22.55Q11.9-22.55 10.85-21.6 9.8-20.65 9-19.1L9-19.1 9-6.7Q9.65-5.45 10.63-4.67 11.6-3.9 12.7-3.9L12.7-3.9ZM39.2-27.1Q40.35-27.1 41.25-26.75L41.25-26.75 40.25-20.85Q39.25-21.1 38.4-21.1L38.4-21.1Q36.5-21.1 35.4-19.45 34.3-17.8 33.7-14.55L33.7-14.55 33.7 0 27.55 0 27.55-26.45 32.9-26.45 33.35-21.85Q35.2-27.1 39.2-27.1L39.2-27.1ZM61-6.4Q61-5.1 61.35-4.48 61.7-3.85 62.5-3.45L62.5-3.45 61.25 0.65Q59.2 0.4 57.97-0.45 56.75-1.3 56.15-3.05L56.15-3.05Q53.85 0.75 49.7 0.75L49.7 0.75Q46.4 0.75 44.45-1.48 42.5-3.7 42.5-7.4L42.5-7.4Q42.5-11.7 45.17-13.95 47.85-16.2 52.95-16.2L52.95-16.2 55-16.2 55-18.05Q55-20.55 54.12-21.58 53.25-22.6 51.3-22.6L51.3-22.6Q48.95-22.6 45.45-21.3L45.45-21.3 44.05-25.3Q46.05-26.2 48.2-26.68 50.35-27.15 52.3-27.15L52.3-27.15Q61-27.15 61-18.35L61-18.35 61-6.4ZM51.35-3.7Q53.75-3.7 55-7L55-7 55-12.55 53.55-12.55Q51-12.55 49.82-11.4 48.65-10.25 48.65-7.85L48.65-7.85Q48.65-5.8 49.35-4.75 50.05-3.7 51.35-3.7L51.35-3.7ZM66.79-26.45L72.94-26.45 72.94 0 66.79 0 66.79-26.45ZM69.84-39.65Q71.49-39.65 72.52-38.6 73.54-37.55 73.54-35.9L73.54-35.9Q73.54-34.3 72.52-33.25 71.49-32.2 69.84-32.2L69.84-32.2Q68.19-32.2 67.17-33.25 66.14-34.3 66.14-35.9L66.14-35.9Q66.14-37.55 67.17-38.6 68.19-39.65 69.84-39.65L69.84-39.65ZM90.99-27.15Q93.84-27.15 95.49-25.1 97.14-23.05 97.14-19.6L97.14-19.6 97.14 0 90.99 0 90.99-18.9Q90.99-20.8 90.47-21.63 89.94-22.45 88.94-22.45L88.94-22.45Q86.84-22.45 84.79-18.5L84.79-18.5 84.79 0 78.64 0 78.64-26.45 83.99-26.45 84.44-23Q85.79-25.1 87.32-26.13 88.84-27.15 90.99-27.15L90.99-27.15ZM116.44-26.45L121.79-26.45 121.79 10.85 115.64 10.15 115.64-2.65Q113.54 0.75 109.94 0.75L109.94 0.75Q105.94 0.75 103.74-2.9 101.54-6.55 101.54-13.2L101.54-13.2Q101.54-17.45 102.66-20.6 103.79-23.75 105.79-25.45 107.79-27.15 110.44-27.15L110.44-27.15Q113.89-27.15 116.14-23.95L116.14-23.95 116.44-26.45ZM111.69-3.9Q112.89-3.9 113.84-4.7 114.79-5.5 115.64-7.1L115.64-7.1 115.64-19.8Q113.94-22.55 111.94-22.55L111.94-22.55Q110.14-22.55 109.04-20.33 107.94-18.1 107.94-13.25L107.94-13.25Q107.94-8.1 108.91-6 109.89-3.9 111.69-3.9L111.69-3.9ZM146.14-26.45L139.14 0.1Q137.84 4.9 134.94 7.65 132.04 10.4 127.19 10.85L127.19 10.85 126.49 6.5Q129.64 5.85 131.21 4.42 132.79 3 133.69 0L133.69 0 131.39 0 124.69-26.45 130.94-26.45 135.34-4.1 140.04-26.45 146.14-26.45Z" opacity="1" transform="matrix(1,0,0,1,0,0)" fill="#000000" class="wordmark-text-0" data-fill-palette-color="primary"></path></svg></g><g><svg xmlns="http://www.w3.org/2000/svg" xmlns:xlink="http://www.w3.org/1999/xlink" version="1.1" x="251.1504" y="0" viewBox="7.549944898427952 7.5499422870298964 84.90011281454217 84.9001154259402" enable-background="new 0 0 100 100" xml:space="preserve" height="81.709" width="81.7089974867558" class="icon-dxe-0" data-fill-palette-color="accent" id="dxe-0"><g fill="#000000" data-fill-palette-color="accent"><path fill="none" d="M85.262 40.783L81.512 37.033H62.023L56.283 46.976H43.717L37.436 36.096 43.717 25.215H56.283L62.023 35.159H79.638L59.217 14.738A12.95 12.95 0 0 0 50 10.921 12.95 12.95 0 0 0 40.783 14.738L14.739 40.783A12.95 12.95 0 0 0 10.92 50 12.95 12.95 0 0 0 14.738 59.217L18.861 63.34H37.976L43.716 53.397H56.282L62.563 64.278 56.282 75.159H43.717L37.977 65.214H20.735L40.783 85.263A12.95 12.95 0 0 0 50 89.081C53.481 89.081 56.754 87.724 59.217 85.263L85.262 59.218A12.96 12.96 0 0 0 89.08 50C89.08 46.517 87.723 43.245 85.262 40.783M71.844 58.32H62.237L58.055 51.078H41.946L37.764 58.32H28.157L23.353 50 28.157 41.68H37.764L41.946 48.923H58.055L62.237 41.68H71.844L76.646 50z"></path><polygon fill="none" points="54.336,71.787 58.672,64.277 54.336,56.768 45.664,56.768 41.328,64.277 45.664,71.787  "></polygon><polygon fill="none" points="45.664,28.586 41.328,36.096 45.664,43.606 54.336,43.606 58.672,36.096 54.336,28.586  "></polygon><path d="M87.645 38.4L61.6 12.355A16.3 16.3 0 0 0 50 7.55 16.3 16.3 0 0 0 38.4 12.355L12.356 38.4A16.3 16.3 0 0 0 7.55 50C7.55 54.383 9.256 58.5 12.356 61.6L38.4 87.645A16.3 16.3 0 0 0 50 92.45C54.383 92.45 58.502 90.743 61.6 87.645L87.645 61.6A16.3 16.3 0 0 0 92.45 50 16.3 16.3 0 0 0 87.645 38.4M85.262 59.217L59.217 85.262A12.96 12.96 0 0 1 50 89.08 12.95 12.95 0 0 1 40.783 85.262L20.735 65.213H37.977L43.717 75.158H56.283L62.564 64.277 56.283 53.396H43.717L37.977 63.339H18.862L14.739 59.216A12.95 12.95 0 0 1 10.92 50 12.95 12.95 0 0 1 14.738 40.783L40.782 14.739A12.95 12.95 0 0 1 49.999 10.922C53.482 10.922 56.753 12.277 59.216 14.739L79.639 35.16H62.023L56.283 25.216H43.717L37.436 36.097 43.717 46.977H56.283L62.023 37.034H81.511L85.261 40.784A12.95 12.95 0 0 1 89.079 50.001 12.95 12.95 0 0 1 85.262 59.217M41.328 64.277L45.664 56.767H54.336L58.672 64.277 54.336 71.787H45.664zM58.672 36.096L54.336 43.606H45.664L41.328 36.096 45.664 28.586H54.336z" fill="#000000" data-fill-palette-color="accent"></path><polygon points="62.236,41.679 58.055,48.922 41.946,48.922 37.764,41.679 28.157,41.679 23.353,50 28.157,58.32 37.764,58.32    41.946,51.078 58.055,51.078 62.236,58.32 71.844,58.32 76.646,50 71.844,41.679  " fill="#000000" data-fill-palette-color="accent"></polygon></g></svg></g></svg></g></svg></g><g transform="matrix(1,0,0,1,0,100.99853388400001)"><svg viewBox="0 0 332.8593974867558 25.814942137880934" height="25.814942137880934" width="332.8593974867558"><g transform="matrix(1,0,0,1,0,0)"><svg width="332.8593974867558" viewBox="2.35 -39.65 651.15 50.5" height="25.814942137880934" data-palette-color="#89939e"><path d="M7.1-21.05L3.05-21.05 2.35-34.55 7.8-34.55 7.1-21.05ZM16.7-21.05L12.65-21.05 11.95-34.55 17.4-34.55 16.7-21.05ZM36.8-18.3Q40.15-17.55 42.08-15.63 44-13.7 44-9.9L44-9.9Q44-4.9 40.63-2.45 37.25 0 31.45 0L31.45 0 22.75 0 22.75-34.55 30.3-34.55Q36.25-34.55 39.5-32.3 42.75-30.05 42.75-25.75L42.75-25.75Q42.75-22.85 41.13-20.95 39.5-19.05 36.8-18.3L36.8-18.3ZM30.95-29.85L29.1-29.85 29.1-20.3 31.25-20.3Q36.3-20.3 36.3-25.2L36.3-25.2Q36.3-27.65 35.03-28.75 33.75-29.85 30.95-29.85L30.95-29.85ZM31.5-4.8Q34.4-4.8 35.9-6.03 37.4-7.25 37.4-10.15L37.4-10.15Q37.4-13.05 36-14.43 34.6-15.8 31.65-15.8L31.65-15.8 29.1-15.8 29.1-4.8 31.5-4.8ZM59.65-27.1Q60.8-27.1 61.7-26.75L61.7-26.75 60.7-20.85Q59.7-21.1 58.85-21.1L58.85-21.1Q56.95-21.1 55.85-19.45 54.75-17.8 54.15-14.55L54.15-14.55 54.15 0 48 0 48-26.45 53.35-26.45 53.8-21.85Q55.65-27.1 59.65-27.1L59.65-27.1ZM81.45-6.4Q81.45-5.1 81.8-4.48 82.15-3.85 82.95-3.45L82.95-3.45 81.7 0.65Q79.65 0.4 78.43-0.45 77.2-1.3 76.6-3.05L76.6-3.05Q74.3 0.75 70.15 0.75L70.15 0.75Q66.85 0.75 64.9-1.48 62.95-3.7 62.95-7.4L62.95-7.4Q62.95-11.7 65.63-13.95 68.3-16.2 73.4-16.2L73.4-16.2 75.45-16.2 75.45-18.05Q75.45-20.55 74.58-21.58 73.7-22.6 71.75-22.6L71.75-22.6Q69.4-22.6 65.9-21.3L65.9-21.3 64.5-25.3Q66.5-26.2 68.65-26.68 70.8-27.15 72.75-27.15L72.75-27.15Q81.45-27.15 81.45-18.35L81.45-18.35 81.45-6.4ZM71.8-3.7Q74.2-3.7 75.45-7L75.45-7 75.45-12.55 74-12.55Q71.45-12.55 70.28-11.4 69.1-10.25 69.1-7.85L69.1-7.85Q69.1-5.8 69.8-4.75 70.5-3.7 71.8-3.7L71.8-3.7ZM87.25-26.45L93.4-26.45 93.4 0 87.25 0 87.25-26.45ZM90.3-39.65Q91.95-39.65 92.98-38.6 94-37.55 94-35.9L94-35.9Q94-34.3 92.98-33.25 91.95-32.2 90.3-32.2L90.3-32.2Q88.65-32.2 87.63-33.25 86.6-34.3 86.6-35.9L86.6-35.9Q86.6-37.55 87.63-38.6 88.65-39.65 90.3-39.65L90.3-39.65ZM111.45-27.15Q114.3-27.15 115.95-25.1 117.6-23.05 117.6-19.6L117.6-19.6 117.6 0 111.45 0 111.45-18.9Q111.45-20.8 110.93-21.63 110.4-22.45 109.4-22.45L109.4-22.45Q107.3-22.45 105.25-18.5L105.25-18.5 105.25 0 99.1 0 99.1-26.45 104.45-26.45 104.9-23Q106.25-25.1 107.78-26.13 109.3-27.15 111.45-27.15L111.45-27.15ZM135.35-27.15Q139.25-27.15 141.25-23.58 143.25-20 143.25-13.3L143.25-13.3Q143.25-6.8 140.98-3.03 138.7 0.75 134.65 0.75L134.65 0.75Q131.45 0.75 129.3-2.1L129.3-2.1 129.3 10.15 123.15 10.85 123.15-26.45 128.6-26.45 128.85-23.25Q130.15-25.25 131.75-26.2 133.35-27.15 135.35-27.15L135.35-27.15ZM133-3.95Q134.9-3.95 135.9-6.13 136.9-8.3 136.9-13.25L136.9-13.25Q136.9-18.45 136.05-20.5 135.2-22.55 133.4-22.55L133.4-22.55Q131.1-22.55 129.3-19.25L129.3-19.25 129.3-6.45Q130.9-3.95 133-3.95L133-3.95ZM157.25-27.15Q162.25-27.15 165.03-23.65 167.8-20.15 167.8-13.25L167.8-13.25Q167.8-6.65 165-2.95 162.2 0.75 157.25 0.75L157.25 0.75Q152.3 0.75 149.5-2.88 146.7-6.5 146.7-13.25L146.7-13.25Q146.7-19.95 149.5-23.55 152.3-27.15 157.25-27.15L157.25-27.15ZM157.25-22.5Q155.1-22.5 154.1-20.38 153.1-18.25 153.1-13.25L153.1-13.25Q153.1-8.2 154.1-6.08 155.1-3.95 157.25-3.95L157.25-3.95Q159.4-3.95 160.4-6.08 161.4-8.2 161.4-13.25L161.4-13.25Q161.4-18.3 160.4-20.4 159.4-22.5 157.25-22.5L157.25-22.5ZM194.4-26.45L200.1-26.45 195.55 0 188.05 0 185.1-20.85 182.2 0 174.75 0 170.1-26.45 176.05-26.45 178.75-4.6 182.1-26.45 188.35-26.45 191.55-4.6 194.4-26.45ZM222.45-13.85Q222.45-13.4 222.3-11.3L222.3-11.3 208.65-11.3Q208.85-7.2 210.08-5.58 211.3-3.95 213.55-3.95L213.55-3.95Q215.1-3.95 216.35-4.48 217.6-5 219.05-6.15L219.05-6.15 221.6-2.65Q218.1 0.75 213.2 0.75L213.2 0.75Q208 0.75 205.23-2.85 202.45-6.45 202.45-13L202.45-13Q202.45-19.55 205.1-23.35 207.75-27.15 212.6-27.15L212.6-27.15Q217.25-27.15 219.85-23.78 222.45-20.4 222.45-13.85L222.45-13.85ZM216.45-15.3L216.45-15.65Q216.45-19.4 215.55-21.13 214.65-22.85 212.65-22.85L212.65-22.85Q210.8-22.85 209.83-21.18 208.85-19.5 208.65-15.3L208.65-15.3 216.45-15.3ZM238.4-27.1Q239.55-27.1 240.45-26.75L240.45-26.75 239.45-20.85Q238.45-21.1 237.6-21.1L237.6-21.1Q235.7-21.1 234.6-19.45 233.5-17.8 232.9-14.55L232.9-14.55 232.9 0 226.75 0 226.75-26.45 232.1-26.45 232.55-21.85Q234.4-27.1 238.4-27.1L238.4-27.1ZM279.35-34.55L281.55 0 275.5 0 274.9-14.6Q274.6-22.6 274.6-26L274.6-26 274.65-28.6 269.9-3.8 263.9-3.8 258.95-28.65Q259-27.15 259-24.05L259-24.05Q259-18.8 258.8-14.4L258.8-14.4 258.25 0 252.3 0 254.5-34.55 262.5-34.55 267-10.2 271.2-34.55 279.35-34.55ZM305.2-13.85Q305.2-13.4 305.05-11.3L305.05-11.3 291.4-11.3Q291.6-7.2 292.83-5.58 294.05-3.95 296.3-3.95L296.3-3.95Q297.85-3.95 299.1-4.48 300.35-5 301.8-6.15L301.8-6.15 304.35-2.65Q300.85 0.75 295.95 0.75L295.95 0.75Q290.75 0.75 287.98-2.85 285.2-6.45 285.2-13L285.2-13Q285.2-19.55 287.85-23.35 290.5-27.15 295.35-27.15L295.35-27.15Q300-27.15 302.6-23.78 305.2-20.4 305.2-13.85L305.2-13.85ZM299.2-15.3L299.2-15.65Q299.2-19.4 298.3-21.13 297.4-22.85 295.4-22.85L295.4-22.85Q293.55-22.85 292.58-21.18 291.6-19.5 291.4-15.3L291.4-15.3 299.2-15.3ZM328.35-13.85Q328.35-13.4 328.2-11.3L328.2-11.3 314.55-11.3Q314.75-7.2 315.98-5.58 317.2-3.95 319.45-3.95L319.45-3.95Q321-3.95 322.25-4.48 323.5-5 324.95-6.15L324.95-6.15 327.5-2.65Q324 0.75 319.1 0.75L319.1 0.75Q313.9 0.75 311.13-2.85 308.35-6.45 308.35-13L308.35-13Q308.35-19.55 311-23.35 313.65-27.15 318.5-27.15L318.5-27.15Q323.15-27.15 325.75-23.78 328.35-20.4 328.35-13.85L328.35-13.85ZM322.35-15.3L322.35-15.65Q322.35-19.4 321.45-21.13 320.55-22.85 318.55-22.85L318.55-22.85Q316.7-22.85 315.73-21.18 314.75-19.5 314.55-15.3L314.55-15.3 322.35-15.3ZM343.8-5L345.95-1.2Q343.5 0.75 340.2 0.75L340.2 0.75Q336.75 0.75 334.95-1.23 333.15-3.2 333.15-6.6L333.15-6.6 333.15-22 330.05-22 330.05-26.45 333.15-26.45 333.15-32.3 339.3-33.05 339.3-26.45 344.3-26.45 343.7-22 339.3-22 339.3-6.6Q339.3-4.2 341.35-4.2L341.35-4.2Q342-4.2 342.5-4.38 343-4.55 343.8-5L343.8-5ZM355.85-27.15Q360.55-27.15 363.8-24.05L363.8-24.05 361.45-20.7Q360.05-21.7 358.8-22.2 357.55-22.7 356.25-22.7L356.25-22.7Q354.8-22.7 353.98-21.93 353.15-21.15 353.15-19.8L353.15-19.8Q353.15-18.45 354.08-17.63 355-16.8 357.8-15.7L357.8-15.7Q361.25-14.35 362.9-12.5 364.55-10.65 364.55-7.55L364.55-7.55Q364.55-3.7 361.85-1.48 359.15 0.75 355 0.75L355 0.75Q352.3 0.75 350.03-0.23 347.75-1.2 346.05-2.95L346.05-2.95 349.05-6.25Q351.85-3.8 354.75-3.8L354.75-3.8Q356.4-3.8 357.35-4.67 358.3-5.55 358.3-7.1L358.3-7.1Q358.3-8.25 357.9-8.97 357.5-9.7 356.5-10.33 355.5-10.95 353.5-11.7L353.5-11.7Q350.05-13.05 348.58-14.85 347.1-16.65 347.1-19.45L347.1-19.45Q347.1-22.8 349.48-24.98 351.85-27.15 355.85-27.15L355.85-27.15ZM378.4-34.55L384.75-34.55 384.75 0 378.4 0 378.4-34.55ZM394.5-34.55L400.95-34.55 391.55-18.9 401.7 0 394.7 0 385-18.45 394.5-34.55ZM423.05-13.85Q423.05-13.4 422.9-11.3L422.9-11.3 409.25-11.3Q409.45-7.2 410.68-5.58 411.9-3.95 414.15-3.95L414.15-3.95Q415.7-3.95 416.95-4.48 418.2-5 419.65-6.15L419.65-6.15 422.2-2.65Q418.7 0.75 413.8 0.75L413.8 0.75Q408.6 0.75 405.83-2.85 403.05-6.45 403.05-13L403.05-13Q403.05-19.55 405.7-23.35 408.35-27.15 413.2-27.15L413.2-27.15Q417.85-27.15 420.45-23.78 423.05-20.4 423.05-13.85L423.05-13.85ZM417.05-15.3L417.05-15.65Q417.05-19.4 416.15-21.13 415.25-22.85 413.25-22.85L413.25-22.85Q411.4-22.85 410.43-21.18 409.45-19.5 409.25-15.3L409.25-15.3 417.05-15.3ZM446-26.45L439 0.1Q437.7 4.9 434.8 7.65 431.9 10.4 427.05 10.85L427.05 10.85 426.35 6.5Q429.5 5.85 431.07 4.42 432.65 3 433.55 0L433.55 0 431.25 0 424.55-26.45 430.8-26.45 435.2-4.1 439.9-26.45 446-26.45ZM467.65-35.25Q470.65-35.25 472.95-34.2 475.25-33.15 477.2-31.05L477.2-31.05 474.25-27.65Q472.7-29.05 471.23-29.75 469.75-30.45 468.1-30.45L468.1-30.45Q466.2-30.45 465.1-29.28 464-28.1 464-26.2L464-26.2Q464-24.3 465.15-23.1 466.3-21.9 469.65-20.6L469.65-20.6Q473.95-18.85 475.98-16.5 478-14.15 478-9.85L478-9.85Q478-6.9 476.65-4.48 475.3-2.05 472.78-0.65 470.25 0.75 466.9 0.75L466.9 0.75Q463.45 0.75 460.9-0.48 458.35-1.7 456.25-3.95L456.25-3.95 459.45-7.45Q461.25-5.85 462.9-5 464.55-4.15 466.5-4.15L466.5-4.15Q468.8-4.15 470.08-5.58 471.35-7 471.35-9.45L471.35-9.45Q471.35-11.6 470.23-12.98 469.1-14.35 466.05-15.5L466.05-15.5Q461.45-17.35 459.43-19.75 457.4-22.15 457.4-25.75L457.4-25.75Q457.4-28.5 458.73-30.65 460.05-32.8 462.4-34.02 464.75-35.25 467.65-35.25L467.65-35.25ZM491.4-27.15Q496.4-27.15 499.18-23.65 501.95-20.15 501.95-13.25L501.95-13.25Q501.95-6.65 499.15-2.95 496.35 0.75 491.4 0.75L491.4 0.75Q486.45 0.75 483.65-2.88 480.85-6.5 480.85-13.25L480.85-13.25Q480.85-19.95 483.65-23.55 486.45-27.15 491.4-27.15L491.4-27.15ZM491.4-22.5Q489.25-22.5 488.25-20.38 487.25-18.25 487.25-13.25L487.25-13.25Q487.25-8.2 488.25-6.08 489.25-3.95 491.4-3.95L491.4-3.95Q493.55-3.95 494.55-6.08 495.55-8.2 495.55-13.25L495.55-13.25Q495.55-18.3 494.55-20.4 493.55-22.5 491.4-22.5L491.4-22.5ZM512.1 0.75Q509.4 0.75 507.83-0.93 506.25-2.6 506.25-5.4L506.25-5.4 506.25-37.05 512.4-37.7 512.4-5.65Q512.4-5 512.7-4.6 513-4.2 513.6-4.2L513.6-4.2Q513.95-4.2 514.28-4.3 514.6-4.4 514.7-4.4L514.7-4.4 515.9-0.2Q514.2 0.75 512.1 0.75L512.1 0.75ZM537.1-26.45L537.1 0 531.75 0 531.45-3.35Q530.2-1.3 528.65-0.28 527.1 0.75 525.05 0.75L525.05 0.75Q522.15 0.75 520.48-1.3 518.8-3.35 518.8-6.65L518.8-6.65 518.8-26.45 524.95-26.45 524.95-7Q524.95-3.9 527.05-3.9L527.05-3.9Q528.25-3.9 529.2-4.83 530.15-5.75 530.95-7.45L530.95-7.45 530.95-26.45 537.1-26.45ZM553.95-5L556.1-1.2Q553.65 0.75 550.35 0.75L550.35 0.75Q546.9 0.75 545.1-1.23 543.3-3.2 543.3-6.6L543.3-6.6 543.3-22 540.2-22 540.2-26.45 543.3-26.45 543.3-32.3 549.45-33.05 549.45-26.45 554.45-26.45 553.85-22 549.45-22 549.45-6.6Q549.45-4.2 551.5-4.2L551.5-4.2Q552.15-4.2 552.65-4.38 553.15-4.55 553.95-5L553.95-5ZM558.65-26.45L564.8-26.45 564.8 0 558.65 0 558.65-26.45ZM561.7-39.65Q563.35-39.65 564.38-38.6 565.4-37.55 565.4-35.9L565.4-35.9Q565.4-34.3 564.38-33.25 563.35-32.2 561.7-32.2L561.7-32.2Q560.05-32.2 559.03-33.25 558-34.3 558-35.9L558-35.9Q558-37.55 559.03-38.6 560.05-39.65 561.7-39.65L561.7-39.65ZM579.9-27.15Q584.9-27.15 587.68-23.65 590.45-20.15 590.45-13.25L590.45-13.25Q590.45-6.65 587.65-2.95 584.85 0.75 579.9 0.75L579.9 0.75Q574.95 0.75 572.15-2.88 569.35-6.5 569.35-13.25L569.35-13.25Q569.35-19.95 572.15-23.55 574.95-27.15 579.9-27.15L579.9-27.15ZM579.9-22.5Q577.75-22.5 576.75-20.38 575.75-18.25 575.75-13.25L575.75-13.25Q575.75-8.2 576.75-6.08 577.75-3.95 579.9-3.95L579.9-3.95Q582.05-3.95 583.05-6.08 584.05-8.2 584.05-13.25L584.05-13.25Q584.05-18.3 583.05-20.4 582.05-22.5 579.9-22.5L579.9-22.5ZM607.35-27.15Q610.2-27.15 611.85-25.1 613.5-23.05 613.5-19.6L613.5-19.6 613.5 0 607.35 0 607.35-18.9Q607.35-20.8 606.83-21.63 606.3-22.45 605.3-22.45L605.3-22.45Q603.2-22.45 601.15-18.5L601.15-18.5 601.15 0 595 0 595-26.45 600.35-26.45 600.8-23Q602.15-25.1 603.68-26.13 605.2-27.15 607.35-27.15L607.35-27.15ZM626.4-27.15Q631.1-27.15 634.35-24.05L634.35-24.05 632-20.7Q630.6-21.7 629.35-22.2 628.1-22.7 626.8-22.7L626.8-22.7Q625.35-22.7 624.53-21.93 623.7-21.15 623.7-19.8L623.7-19.8Q623.7-18.45 624.63-17.63 625.55-16.8 628.35-15.7L628.35-15.7Q631.8-14.35 633.45-12.5 635.1-10.65 635.1-7.55L635.1-7.55Q635.1-3.7 632.4-1.48 629.7 0.75 625.55 0.75L625.55 0.75Q622.85 0.75 620.58-0.23 618.3-1.2 616.6-2.95L616.6-2.95 619.6-6.25Q622.4-3.8 625.3-3.8L625.3-3.8Q626.95-3.8 627.9-4.67 628.85-5.55 628.85-7.1L628.85-7.1Q628.85-8.25 628.45-8.97 628.05-9.7 627.05-10.33 626.05-10.95 624.05-11.7L624.05-11.7Q620.6-13.05 619.13-14.85 617.65-16.65 617.65-19.45L617.65-19.45Q617.65-22.8 620.03-24.98 622.4-27.15 626.4-27.15L626.4-27.15ZM643.2-21.05L639.15-21.05 638.45-34.55 643.9-34.55 643.2-21.05ZM652.8-21.05L648.75-21.05 648.05-34.55 653.5-34.55 652.8-21.05Z" opacity="1" transform="matrix(1,0,0,1,0,0)" fill="#000000" class="slogan-text-1" data-fill-palette-color="secondary" id="text-1"></path></svg></g></svg></g></svg></g></svg></g><g></g></svg></g><defs></defs></svg><rect width="332.8593974867558" height="126.81347602188094" fill="none" stroke="none" visibility="hidden"></rect></g></svg></g></svg>